<svg id="visual" viewBox="0 0 900 600" width="900" height="600" xmlns="http://www.w3.org/2000/svg" xmlns:xlink="http://www.w3.org/1999/xlink" version="1.1"><rect x="0" y="0" width="900" height="600" fill="#001220"></rect><defs><linearGradient id="grad1_0" x1="33.3%" y1="0%" x2="100%" y2="100%"><stop offset="20%" stop-color="#001220" stop-opacity="1"></stop><stop offset="80%" stop-color="#001220" stop-opacity="1"></stop></linearGradient></defs><defs><linearGradient id="grad2_0" x1="0%" y1="0%" x2="66.7%" y2="100%"><stop offset="20%" stop-color="#001220" stop-opacity="1"></stop><stop offset="80%" stop-color="#001220" stop-opacity="1"></stop></linearGradient></defs><g transform="translate(900, 0)"><path d="M0 459.7C-45.8 432.3 -91.5 405 -119.9 369C-148.3 333.1 -159.3 288.5 -198.7 273.4C-238 258.4 -305.7 272.8 -351.9 255.7C-398.1 238.6 -422.8 189.9 -437.2 142.1C-451.6 94.2 -455.6 47.1 -459.7 0L0 0Z" fill="#FBAE3C"></path></g><g transform="translate(0, 600)"><path d="M0 -459.7C30.9 -403.3 61.8 -346.9 110.9 -341.4C160.1 -336 227.5 -381.6 270.2 -371.9C312.9 -362.2 330.9 -297.3 338.2 -245.7C345.4 -194.1 342 -155.8 360.5 -117.1C378.9 -78.4 419.3 -39.2 459.7 0L0 0Z" fill="#FBAE3C"></path></g></svg>