<svg id="visual" viewBox="0 0 900 600" width="900" height="600" xmlns="http://www.w3.org/2000/svg" xmlns:xlink="http://www.w3.org/1999/xlink" version="1.1"><rect x="0" y="0" width="900" height="600" fill="#002233"></rect><path d="M0 193L21.5 193.2C43 193.3 86 193.7 128.8 181.3C171.7 169 214.3 144 257.2 142.7C300 141.3 343 163.7 385.8 168.2C428.7 172.7 471.3 159.3 514.2 147.2C557 135 600 124 642.8 135.3C685.7 146.7 728.3 180.3 771.2 196.7C814 213 857 212 878.5 211.5L900 211L900 0L878.5 0C857 0 814 0 771.2 0C728.3 0 685.7 0 642.8 0C600 0 557 0 514.2 0C471.3 0 428.7 0 385.8 0C343 0 300 0 257.2 0C214.3 0 171.7 0 128.8 0C86 0 43 0 21.5 0L0 0Z" fill="#0066FF" stroke-linecap="round" stroke-linejoin="miter"></path></svg>